<svg version="1.2" xmlns="http://www.w3.org/2000/svg" viewBox="0 0 324 500" width="324" height="500"><style>.a{fill:#1e1f39}.b{fill:#fae0b2}.c{fill:#ffba00}.d{fill:#f79c8d}.e{fill:#282a58}.f{fill:#f7a491}.g{fill:#24264b}.h{fill:#355389}.i{fill:#07345a}.j{fill:#f47458}.k{fill:#edb92c}.l{fill:#fff}</style><path class="a" d="m70.2 313.6l8 1.5-34.6 182.7-8-1.5z"/><path class="a" d="m308 498.7h9.6l-35.7-185.1-8 1.5z"/><path class="a" d="m132.5 498.7h9.6l-35.7-185.1-8 1.5z"/><path class="a" d="m220.7 498.7l-7.8 0.1 34.3-184.4 7.9 1.6z"/><path class="b" d="m185.9 64.4c31.6 3.4 72.4 6.9 113.4 76.5 44.8 76.1 21.3 189.7-14.1 221.3-35.4 31.6-150.9 70.6-248.1 12.2 0 0-58.6-35.4-28.5-94.1 46.3-90.3 39.8-109.2 60.5-144.6 20.7-35.4 49.8-78.5 116.8-71.3z"/><path class="c" d="m299.3 140.9c-28-47.5-55.9-64.2-80.8-71.1 9.6 9.9 19.4 22.8 29.2 39.4 44.8 76.1 21.2 189.7-14.2 221.3-31.3 28-125.7 61.8-214.4 28.4q1.9 2.2 4.1 4.3 2.1 2.1 4.4 4.1 2.3 1.9 4.6 3.7 2.4 1.8 4.9 3.4c97.2 58.4 212.7 19.4 248.1-12.2 35.4-31.6 58.9-145.2 14.1-221.3z"/><path class="d" d="m84.6 180l-8.2 24.3 24.8-9.7z"/><path class="e" d="m110.1 107.6c-1.7 0-6.2 1.5-12.8 14-8.5 15.9-20.8 63.9-20.8 63.9l36.8 13.6 4.7-10 7.8-77.1c0 0-15.3-4.5-15.7-4.4z"/><path class="a" d="m158.7 100.6c-10.5 0-36.6 3.1-48.6 7 0 0-8.9 76 7.9 133.8 3.8 12.9-3.1 53.6-3.1 53.6l109.1-1.4c0 0-13-98.4-8.1-114.3 4.9-15.9 5-71.2 5-71.2 0 0-0.8-0.1-24.5-4.2q-4.7-0.8-9.4-1.4-4.7-0.6-9.4-1-4.7-0.4-9.4-0.6-4.8-0.2-9.5-0.3z"/><path class="f" d="m171.4 436.2c0 0-2.4 27.8-6.9 35.4-4.4 7.7 0.3 20.8 0.5 22.6 0.3 1.8 9.4 4.3 23.8 2.8 14.5-1.5 14.3-4.9 13.1-10.2-1.2-5.4-8.9-12.3-9.3-17.5-0.5-5.1 4.4-23.5 4.4-23.5z"/><path class="g" d="m127.2 272.1c0 0-75.3-4.1-92.1 6-16.8 10.2 3.1 31 3.1 31 0 0 61.3 26.6 163.8 32.5 24.3 1.4 26.4-63.2 21.9-68.5-4.5-5.4-96.7-1-96.7-1z"/><path class="h" d="m190.6 499.2c14.9-1.6 13.1-8.9 11.9-14.5-0.8-3.4-5-7.5-7.6-11.4-1.3 1.1-3.5 2.9-10 4.8-6.7 2-15.9-1.9-21.8-4.4q-0.5 2.4-0.9 4.8-0.5 2.4-0.7 4.8-0.3 2.4-0.3 4.8-0.1 2.4 0 4.8c0.2 1.9 14.5 7.8 29.4 6.3z"/><path class="a" d="m182.4 325.8c-3 22.7-17.9 135.6-17.9 135.6l34.6 4.3c0 0 42.4-147.4 40.3-169.9-2.2-22.6-18.1-24.5-18.1-24.5 0 0-30.9-5.5-38.9 54.5z"/><path class="i" d="m149.3 4.7c0 0 11.5-12.1 20.7 2.6 0 0 7.1-4 12.1 3.1 0 0 12.9-3.8 16 15.4 0 0 6.6-1.3 7.5 6.6q0.2 1.7 0.1 3.4-0.1 1.7-0.5 3.4-0.4 1.7-1.1 3.3-0.7 1.6-1.6 3c-0.7 0.9 3.7 2.8 2 10-1.4 6.1-6.5 7.1-6.5 7.1 0 0-1.4 10.3-5.9 13.5-4.5 3.1-10.6 1.6-10.6 1.6 0 0-1.6 5.6-6.9 5.1-5.2-0.5-11.7-5.5-17.5-3.2-5.9 2.2-21.1-0.2-21.1-0.2 0 0-17.1-7.6-12-25.1 0 0-9-8.1-1.1-17.8 0 0-5.8-15.2 5.6-24.2 11.3-9 20.8-7.6 20.8-7.6z"/><path class="f" d="m151.3 86.9l-2.1 15.4c0 0-4.7 22.2 1.3 26.5 6 4.3 25.5-27.2 25.5-27.2l-2.1-39z"/><path class="j" d="m174.6 75.2c-5 13.4-16.7 21.6-25.1 24.7l1.8-13 22.6-24.3z"/><path class="f" d="m160.1 21.5c-2.9-0.9-5.9-1.3-8.9-0.9-3 0.3-5.9 1.3-8.4 2.9-2.6 1.5-4.8 3.6-6.5 6.1-1.6 2.5-2.7 5.4-3.2 8.4q-0.3 2.4-0.6 4.9-0.3 2.4-0.5 4.9-0.2 2.5-0.4 5-0.1 2.4-0.2 4.9c-0.3 18 9 35.6 17.2 35.6 8.2 0 30.8-11.7 31.6-37.3 0.5-15.7-7.4-30.1-20.1-34.5z"/><path class="f" d="m180.1 65.3c-3.3 0-5.9-3.3-5.9-7.2 0-4 2.6-7.2 5.9-7.2 3.2 0 5.8 3.2 5.8 7.2 0 3.9-2.6 7.2-5.8 7.2z"/><path class="i" d="m124.7 12.6c-8.5 6.7-11.4 16.8-6.7 22.7 4.8 5.8 15.6 5.1 24-1.5 8.5-6.7 11.4-16.9 6.6-22.8-4.8-5.8-15.5-5.1-23.9 1.6z"/><path class="f" d="m222.1 116.5c-10.2-3.8-15.2 87.8-16.6 125.5-18 1.7-49.5 0-57.3-0.6-3.7-0.3-12.2-3.4-15.9-3.9-3.7-0.5-7.1-0.7-9-0.4-0.7 0.1-19.5 7.8-21.1 9.5-2 2.1-7.4 7.3-6.5 9.6 0.9 2.3 10.4-6.3 10.4-6.3l4.6-2.6c-5.7 5.6-16.7 13-15.1 15.7 1.5 2.6 11.4-4.9 18.5-10-6.1 5.4-13.6 15.2-11.9 16.7 1.6 1.4 10.2-9.9 19.3-13.2 3.4-1.2 6.8 2.2 9.4 2.6 2 0.3 5 0.9 7 0.4l9.9-2.8c3.3 0.3 3.4 2.2 6.8 3 4 0.8 10.5 1.7 15.5 2.9 29 7.1 38.7 10.4 47.6 10.4 26.9-0.1 28.5-147.5 4.4-156.5z"/><path class="e" d="m241.4 202.5c1.9-38.6 1.7-86.2-20.1-94.3-8.5-3.2-23.6 16-20.9 95.1 11.6 0.9 28.6 1.7 41-0.8z"/><path class="d" d="m120 185.9h2.2l33.2 81.5-2.2-0.4z"/><path class="f" d="m70.4 459.9c0 0 3 9.7-2.4 16-5.4 6.4-27.8 12.7-30.8 16.1-2.9 3.5-2.7 6.4-2.7 6.4l63-1.7-0.7-19-2.9-13.6z"/><path class="h" d="m64.1 479.1c0 0 16.1 6.5 24 2.7 7.8-3.9 7.5-4.9 9.8-3.5 2.3 1.4 3.1 19.2 3.1 19.2l-70.8 2.1c-4.9-0.1-7.4-3.8-3.4-6.9 2.7-2.1 5.9-3.5 7.7-4.5 5.5-3.2 29.6-9.1 29.6-9.1z"/><path class="a" d="m72.8 289.9c-4.9-10.2-16-23.5-35.4-15.5-18.6 7.7-23.6 26.4-17.7 45.6 5.8 19.2 44.4 132.2 45.7 147.7l30.8 0.2c0 0-5.6-89.4-6.9-111-1.4-20.8-8.1-49.3-16.5-67z"/><path class="k" d="m22.8 185.9h102.9q1 0 2 0.3 0.9 0.3 1.8 0.8 0.8 0.6 1.4 1.4 0.6 0.7 1 1.7l31.7 77.3h56.8q0.6 0 1.1 0.2 0.5 0.2 0.9 0.6 0.4 0.4 0.6 1 0.3 0.5 0.3 1.1 0 0.5-0.3 1.1-0.2 0.5-0.6 0.9-0.4 0.4-0.9 0.6-0.5 0.2-1.1 0.2h-161.6q-1.6 0-3.1-0.4-1.6-0.5-3-1.4-1.4-0.9-2.4-2.1-1.1-1.2-1.7-2.7l-32-71.1c-0.4-1.1-0.6-2.2-0.5-3.3 0.1-1.1 0.4-2.2 1-3.1 0.6-1 1.5-1.7 2.5-2.3 0.9-0.5 2-0.8 3.2-0.8z"/><path class="l" d="m78.2 230.9c0.7 3.5 3.7 5.8 6.8 5.2 3-0.6 4.9-3.9 4.2-7.4-0.7-3.4-3.7-5.8-6.8-5.2-3 0.6-4.9 4-4.2 7.4z"/></svg>